<svg width="45" height="45" viewBox="0 0 45 45" fill="none" xmlns="http://www.w3.org/2000/svg">
<path d="M22.5 0C10.0755 0 0 10.0755 0 22.5C0 34.9245 10.0755 45 22.5 45C34.9245 45 45 34.9245 45 22.5C45 10.0755 34.9245 0 22.5 0ZM22.9769 35.6002C22.9765 35.6002 22.9772 35.6002 22.9769 35.6002H22.9714C20.7175 35.5991 18.5027 35.034 16.5358 33.9615L9.39709 35.8336L11.3077 28.8573C10.1291 26.8159 9.50901 24.4999 9.51004 22.1272C9.51313 14.7045 15.5542 8.66581 22.9769 8.66581C26.579 8.66718 29.9604 10.0693 32.5027 12.6137C35.0454 15.1584 36.4447 18.5408 36.4434 22.1378C36.4403 29.5608 30.3985 35.6002 22.9769 35.6002Z" fill="white"/>
<path d="M22.9813 10.9396C16.8074 10.9396 11.7863 15.9587 11.7835 22.1282C11.7828 24.2424 12.3747 26.3013 13.495 28.0828L13.761 28.5061L12.6301 32.6352L16.8664 31.5242L17.2753 31.7666C18.9936 32.7863 20.9636 33.3257 22.9721 33.3263H22.9765C29.1457 33.3263 34.1668 28.307 34.1695 22.1371C34.1706 19.1471 33.0074 16.336 30.8942 14.2211C28.7811 12.1062 25.9706 10.9407 22.9813 10.9396ZM29.5649 26.9388C29.2844 27.7243 27.9403 28.4415 27.2938 28.5384C26.7139 28.6249 25.9806 28.6609 25.1745 28.4052C24.6856 28.25 24.059 28.0429 23.256 27.6965C19.8808 26.2395 17.6763 22.8419 17.5081 22.6174C17.3398 22.3929 16.1341 20.7933 16.1341 19.1375C16.1341 17.482 17.0034 16.668 17.3117 16.3315C17.6203 15.9947 17.9849 15.9106 18.2091 15.9106C18.4333 15.9106 18.6579 15.9127 18.8539 15.9223C19.0606 15.9326 19.338 15.8437 19.6109 16.4997C19.8914 17.1733 20.5643 18.8288 20.6484 18.9971C20.7326 19.1656 20.7885 19.362 20.6766 19.5866C20.5643 19.8111 20.1915 20.2955 19.8355 20.737C19.6861 20.9221 19.4915 21.0869 19.6878 21.4237C19.8839 21.7601 20.5595 22.8619 21.5596 23.7538C22.845 24.8998 23.9292 25.2548 24.2657 25.4234C24.6018 25.5916 24.7982 25.5635 24.9946 25.3393C25.1906 25.1147 25.8357 24.357 26.0599 24.0202C26.2841 23.6834 26.5086 23.7397 26.8169 23.852C27.1256 23.9639 28.7797 24.7779 29.1162 24.9462C29.4526 25.1147 29.6768 25.1989 29.7609 25.3393C29.8454 25.4797 29.8454 26.153 29.5649 26.9388Z" fill="white"/>
</svg>
